<svg id="Layer_1" data-name="Layer 1" xmlns="http://www.w3.org/2000/svg" viewBox="0 0 140 46"><defs><style>.cls-1{fill:#fff;}</style></defs><title>Artboard 1</title><path class="cls-1" d="M74.74,18.81l1.72.51V20c-1.49.07-3,0-4.41,0-.17-.61-.15-.65.35-.82l1.16-.38c0-.22,0-.41,0-.61V9.67a.38.38,0,0,0-.32-.42h0c-.27-.07-.54-.17-.81-.25-.55-.17-.55-.17-.43-.83l.51,0c.92,0,1.83,0,2.74,0a1,1,0,0,1,1,.5c1.76,2.51,3.51,5,5.28,7.49.1.15.2.29.38.53,0-.26.06-.38.06-.51V9.83c0-.5,0-.5-.51-.64L80.6,9c-.49-.15-.5-.17-.42-.7a24.38,24.38,0,0,1,4.44,0c.11.56.1.58-.41.75l-1.15.35V20.08l-.84,0c-.26,0-.33-.21-.44-.36L79,15.89l-3.9-5.48c-.1-.15-.22-.28-.35-.45C74.68,10.41,74.64,18.21,74.74,18.81Z"/><path class="cls-1" d="M79,36.6l1.82.35v.57a50.49,50.49,0,0,1-5.77,0V37L77,36.6c.11-.39.15-8.9,0-9.78l-1.93-.38v-.62a3.15,3.15,0,0,1,.43-.05h5.58a5.25,5.25,0,0,1,2.54.63,2.64,2.64,0,0,1,1.47,2.52,2.42,2.42,0,0,1-.9,1.81,5.22,5.22,0,0,1-2,1l-.54.15.21.15a3.94,3.94,0,0,1,1.95,1.91c.25.5.51,1,.76,1.51a2.51,2.51,0,0,0,2,1.5,1.5,1.5,0,0,1,.29.06L87,37l0,.47c-.06,0-.08.09-.11.09-.81,0-1.62,0-2.43,0a1.68,1.68,0,0,1-1.28-.78,8.2,8.2,0,0,1-.61-1c-.38-.73-.73-1.49-1.1-2.23a4.48,4.48,0,0,0-.35-.6,1.32,1.32,0,0,0-1.08-.62h-1A30.43,30.43,0,0,0,79,36.6Zm0-9.81v4.56h1.41a2.35,2.35,0,0,0,2.49-2.94,1.82,1.82,0,0,0-1-1.48,4.61,4.61,0,0,0-2.77-.24.19.19,0,0,1-.08.08Z"/><path class="cls-1" d="M21.86,25.8c.19,0,.35,0,.51,0h2.94a.78.78,0,0,1,.73.39c1.79,2.55,3.57,5.09,5.37,7.62a1.13,1.13,0,0,0,.41.37c0-.14,0-.28,0-.42V27.45c0-.49,0-.49-.5-.63l-.91-.27c-.47-.14-.49-.18-.35-.75h4.36c.2.52.16.61-.31.77L32.92,27V37.69a4.31,4.31,0,0,1-.88,0,.78.78,0,0,1-.39-.35L29,33.61,25,28c-.1-.14-.21-.27-.35-.44-.11.45-.15,7.7-.06,8.82l.67.22.62.17c.53.16.53.16.43.77H21.9c-.16-.56-.14-.6.37-.77l.91-.28a.34.34,0,0,0,.29-.4h0V27.25a.32.32,0,0,0-.27-.35c-.31-.08-.61-.18-.9-.27C21.79,26.46,21.79,26.44,21.86,25.8Z"/><path class="cls-1" d="M67.41,8.2c.1.7.21,1.42.31,2.13,0,.26.06.52.1.78s0,.29-.19.31a.45.45,0,0,1-.35-.1c-.32-.35-.61-.74-.92-1.11-.18-.21-.37-.43-.56-.63a1.29,1.29,0,0,0-.89-.4l-2.14,0h-.91v4.35a1,1,0,0,0,.3.08c.38,0,.76,0,1.14,0a1.18,1.18,0,0,0,1.11-.79c.13-.32.23-.66.35-1s.14-.4.64-.28c0,.13,0,.28,0,.43v4.23c0,.19.1.46-.24.5s-.32,0-.44-.42-.21-.63-.33-.93a1.2,1.2,0,0,0-1-.79c-.48,0-1,0-1.47,0V19l.39,0h3a1.8,1.8,0,0,0,1.7-.91c.33-.53.73-1,1.08-1.55a.42.42,0,0,1,.55-.22l.12.08c-.16,1.16-.33,2.34-.49,3.51-.46.13-9.7.14-10.27,0v-.59L59.89,19V9.19c-.29-.06-.57-.13-.86-.18l-.64-.11c-.52-.09-.52-.11-.44-.67C58.3,8.12,66.67,8.08,67.41,8.2Z"/><path class="cls-1" d="M65.22,32.1v4.46a2.63,2.63,0,0,0,.39.06h3a1.81,1.81,0,0,0,1.71-.91c.35-.55.74-1.05,1.11-1.59.16-.24.35-.3.62-.08,0,.35-.09.7-.14,1.05-.1.72-.21,1.44-.3,2.17,0,.24-.13.35-.38.35h-9.9V37l1.93-.37V26.79l-1.94-.35v-.63H70.7a.88.88,0,0,1,.1.22c.13.87.25,1.75.38,2.61,0,.05,0,.11,0,.15s-.1.21-.18.25a.34.34,0,0,1-.31,0,5.59,5.59,0,0,1-.45-.52c-.2-.25-.42-.48-.6-.74a2.24,2.24,0,0,0-2.1-1c-.6,0-1.2,0-1.79,0a3.14,3.14,0,0,0-.52,0v4.38a6.12,6.12,0,0,0,1.71,0,1.09,1.09,0,0,0,.8-.7c.12-.29.21-.59.31-.89,0-.12,0-.29.13-.37a.61.61,0,0,1,.37-.15c.08,0,.18.14.21.23a1,1,0,0,1,0,.35v4.09a.76.76,0,0,1,0,.3.53.53,0,0,1-.22.27.29.29,0,0,1-.38-.15.08.08,0,0,1,0-.05c-.09-.28-.17-.57-.27-.85a1.4,1.4,0,0,0-1.57-1.1Z"/><path class="cls-1" d="M10.14,15c0,.2,0,.35,0,.49v3c0,.48.08.5.45.55s.95.17,1.42.25l.17.07V20c-2,0-3.93,0-5.86,0-.19-.58-.14-.67.35-.77L8.12,19c0-.18.05-.35.05-.53V9.68c0-.51,0-.51-.51-.59l-1-.19c-.5-.09-.52-.14-.4-.7a2.87,2.87,0,0,1,.41,0h5.23a5.66,5.66,0,0,1,2.19.43,3.22,3.22,0,0,1,1.05,5.28,3.88,3.88,0,0,1-2.66,1.19c-.61,0-1.23,0-1.84-.07Zm0-.92a4.24,4.24,0,0,0,2.29,0,1.87,1.87,0,0,0,1.38-1.48,5.93,5.93,0,0,0,.08-1.63,1.9,1.9,0,0,0-1-1.55,3.85,3.85,0,0,0-2.81-.26Z"/><path class="cls-1" d="M9.61,26.79c0,.21,0,.35,0,.5v6.22a5.49,5.49,0,0,0,.19,1.34,2.44,2.44,0,0,0,1.82,1.8,4.56,4.56,0,0,0,1.68.16,2.87,2.87,0,0,0,2.64-2.66A10.9,10.9,0,0,0,16,33V27.48c0-.51,0-.51-.48-.66l-.76-.24c-.46-.16-.48-.19-.35-.76h4.2c.13.59.12.61-.38.78L17.06,27v.62c0,1.88,0,3.76,0,5.63A6.51,6.51,0,0,1,16.81,35a4,4,0,0,1-3.62,2.9,7,7,0,0,1-2.66-.18,3.62,3.62,0,0,1-2.87-3.55c-.06-1.81,0-3.72,0-5.58v-1.4c0-.35,0-.37-.38-.45l-1-.19c-.5-.1-.55-.18-.35-.74h5.61v.65Z"/><path class="cls-1" d="M19.34,18.87l.95.33c.46.16.48.2.35.76H16.78c-.17-.55-.14-.61.35-.79a2.5,2.5,0,0,0,1-.4,2.89,2.89,0,0,0,.49-1.05q1.75-4.53,3.47-9.06c0-.12.1-.25.14-.37a.31.31,0,0,1,.35-.23h1.05c.11.26.21.49.3.72l3.63,9.58a.92.92,0,0,0,.75.71,2.54,2.54,0,0,1,.47.14c.53.16.53.16.44.73A38.79,38.79,0,0,1,24,20v-.62L25.76,19c-.12-.31-.21-.58-.3-.84-.23-.64-.47-1.28-.69-1.92a.41.41,0,0,0-.42-.33H20.76a.39.39,0,0,0-.43.26C20,17,19.67,17.91,19.34,18.87Zm3.22-8.71h-.12c-.57,1.56-1.14,3.13-1.7,4.69a17.06,17.06,0,0,0,3.5,0l-1.69-4.69Z"/><path class="cls-1" d="M54.44,8.14c.23,1.21.45,2.36.66,3.5-.44.2-.44.21-.66-.09s-.63-.9-1-1.34a6.3,6.3,0,0,0-.58-.68A1.35,1.35,0,0,0,52,9.1c-.49,0-1,0-1.54,0a3.42,3.42,0,0,0,0,.44v9c0,.44,0,.45.45.53l1.66.3,0,.56a46.94,46.94,0,0,1-6.17,0v-.6l2-.35c.12-.44.13-9.34,0-9.86a8.33,8.33,0,0,0-1.8,0,1.5,1.5,0,0,0-1,.59c-.42.54-.81,1.09-1.22,1.64l-.2.28a.27.27,0,0,1-.36.11l0,0a.43.43,0,0,1-.14-.32c.18-1,.37-2,.55-3a.33.33,0,0,1,.34-.31h9.89Z"/><path class="cls-1" d="M90.94,37.38c-.3.35-.54.77-1.12.46,0-.29,0-.6-.07-.91l-.15-2.68c0-.2,0-.42.24-.47s.37,0,.53.31c.36.62.65,1.27,1,1.87A2.5,2.5,0,0,0,93,37.08a3,3,0,0,0,1.57,0,1.84,1.84,0,0,0,1.34-1.63,2,2,0,0,0-1.05-2.23c-.58-.33-1.2-.58-1.8-.87s-.94-.4-1.4-.65A3,3,0,0,1,90,28.32a3.25,3.25,0,0,1,2.62-2.73,4.15,4.15,0,0,1,2.67.27l.27.12a4.23,4.23,0,0,1,.61-.51c.12-.07.32,0,.46,0A16.39,16.39,0,0,1,97,29c-.52.17-.53.14-.78-.28A17.18,17.18,0,0,0,95.13,27a2.07,2.07,0,0,0-1.79-.8,1.65,1.65,0,0,0-1.68,1.47,2,2,0,0,0,.89,2.06,6.33,6.33,0,0,0,1,.51c.47.22.95.4,1.4.62a9.65,9.65,0,0,1,1.06.55A3.31,3.31,0,0,1,97.11,36a4,4,0,0,1-.23.34,4,4,0,0,1-3,1.56,6.18,6.18,0,0,1-2.45-.35Z"/><path class="cls-1" d="M40.17,8.21c.18.9.36,1.8.53,2.69,0,.1,0,.2,0,.29s.18.44-.12.57-.4-.13-.53-.31c-.24-.35-.48-.68-.7-1l-.49-.63a1.77,1.77,0,0,0-1.56-.72c-.37,0-.76,0-1.12,0-.12.38-.16,9-.06,9.87l2.06.37v.58a51.72,51.72,0,0,1-6.11,0v-.6l2-.35c.12-.35.16-8.94,0-9.85l-.41,0h-.9a1.71,1.71,0,0,0-1.52.7c-.42.54-.82,1.09-1.22,1.63-.14.18-.23.46-.53.35s-.15-.39-.11-.6c.17-1,.35-1.95.53-2.91C30.38,8.12,39.5,8.08,40.17,8.21Z"/><path class="cls-1" d="M121.72,29.24c-.28.24-.47.21-.64,0s-.46-.7-.71-1-.48-.63-.74-.94a1.54,1.54,0,0,0-1.19-.53H117a4.1,4.1,0,0,0-.06.49V36c0,.41,0,.59.54.64s1,.18,1.59.28v.55a49.49,49.49,0,0,1-6.14,0V37c.39-.07.78-.12,1.17-.2,1-.2.93,0,.93-1V27.43c0-.21,0-.43,0-.7a6.35,6.35,0,0,0-2,.08,1.86,1.86,0,0,0-1,.81c-.39.51-.75,1.05-1.14,1.57-.19.27-.2.27-.61.08,0-.31.1-.64.16-1l.39-2.1c.09-.44.1-.44.55-.44H121C121.32,26.94,121.51,28.09,121.72,29.24Z"/><path class="cls-1" d="M127.2,37.56c-.14-.55-.09-.62.38-.7l1.38-.21a.32.32,0,0,0,.31-.32V32.91a.83.83,0,0,0-.17-.45l-3.32-5.26a.8.8,0,0,0-.55-.41c-.29-.06-.58-.14-.87-.22-.49-.13-.49-.13-.42-.7a41.55,41.55,0,0,1,5.37,0c0,.09,0,.18,0,.28a1.21,1.21,0,0,1,0,.31l-1.6.35,3,4.86c1-1.62,1.9-3.16,2.87-4.74l-1.12-.35c-.49-.15-.49-.15-.42-.7a24.92,24.92,0,0,1,4.24,0c.1.56.11.63-.41.75a2.58,2.58,0,0,0-1.73,1.34c-.84,1.36-1.75,2.67-2.64,4a1.55,1.55,0,0,0-.28.93c0,1,0,2.1,0,3.15v.58l2.1.38v.57C132.92,37.63,127.93,37.65,127.2,37.56Z"/><path class="cls-1" d="M56.35,27l-1-.38c-.46-.17-.48-.2-.35-.73a24.28,24.28,0,0,1,4,0c.11.55.1.57-.4.75a3.08,3.08,0,0,0-1.05.42,2.75,2.75,0,0,0-.48,1L53.45,37.1l-.06.13a.7.7,0,0,1-.86.5l-.11,0a.74.74,0,0,1-.28-.37c-.41-1-.81-2-1.21-3.06-.93-2.3-1.86-4.61-2.77-6.93a.81.81,0,0,0-.65-.58l-.72-.18c-.52-.15-.53-.17-.4-.77h5.47v.62l-.86.2-.93.18c1,2.78,2.06,5.5,3.09,8.23C54.29,32.37,55.31,29.69,56.35,27Z"/><path class="cls-1" d="M103.13,26.79l-2-.35v-.63H107c.2.53.15.64-.39.73s-.92.15-1.37.24a.38.38,0,0,0-.15.09v9.71l2,.35v.63h-6V37l2-.37Z"/><path class="cls-1" d="M37.76,26.41v-.63c2,0,4,0,6,0v.65l-.94.19c-.25,0-.49.09-.74.11a.35.35,0,0,0-.36.34.28.28,0,0,0,0,.09v9.07c0,.26.09.38.35.42.55.08,1.11.19,1.68.29v.65c-2,0-4,0-6,0V37l1.57-.29c.44-.08.46-.08.46-.54V27.26c0-.45,0-.45-.47-.53l-1.13-.2C38.06,26.5,37.92,26.44,37.76,26.41Z"/></svg>