<?xml version="1.0" standalone="no"?>
<!DOCTYPE svg PUBLIC "-//W3C//DTD SVG 20010904//EN"
 "http://www.w3.org/TR/2001/REC-SVG-20010904/DTD/svg10.dtd">
<svg version="1.0" xmlns="http://www.w3.org/2000/svg"
 width="940.000000pt" height="154.000000pt" viewBox="0 0 940.000000 154.000000"
 preserveAspectRatio="xMidYMid meet">
<metadata>
Created by potrace 1.15, written by Peter Selinger 2001-2017
</metadata>
<g transform="translate(0.000000,154.000000) scale(0.100000,-0.100000)"
fill="#000000" stroke="none">
<path d="M0 770 l0 -770 4700 0 4700 0 0 770 0 770 -4700 0 -4700 0 0 -770z
m1425 68 c54 -139 101 -266 105 -283 5 -24 11 -30 30 -30 18 0 26 -6 28 -22 3
-23 1 -23 -97 -23 -90 0 -101 2 -101 18 0 9 10 22 23 27 25 12 26 41 2 99
l-15 36 -104 0 -104 0 -21 -62 c-26 -78 -26 -77 6 -75 22 2 29 -3 31 -20 3
-22 1 -23 -82 -23 -79 0 -86 2 -86 20 0 11 6 20 13 20 28 0 47 40 142 303 75
205 102 267 115 267 13 0 40 -61 115 -252z m6055 237 c50 -18 53 -18 45 -5 -4
6 7 10 24 10 l31 0 0 -95 c0 -88 -2 -95 -20 -95 -14 0 -22 11 -31 42 -6 23
-26 57 -44 75 -28 28 -40 33 -80 33 -59 0 -83 -13 -101 -55 -26 -62 4 -100
132 -163 133 -67 174 -112 174 -194 0 -100 -75 -161 -198 -161 -40 0 -82 6
-104 16 -34 14 -38 14 -38 1 0 -11 -8 -14 -27 -12 l-28 3 -3 93 -3 92 26 0
c19 0 25 -5 25 -20 0 -56 56 -114 120 -125 81 -14 145 28 145 95 0 54 -30 82
-146 140 -109 55 -154 98 -164 159 -12 71 29 143 95 170 38 15 122 13 170 -4z
m-6548 -15 c93 -29 128 -72 128 -160 0 -28 -7 -64 -14 -79 -38 -72 -136 -121
-243 -121 l-53 0 0 -90 0 -90 40 6 c38 6 40 5 40 -20 l0 -26 -110 0 c-103 0
-110 1 -110 20 0 13 7 20 20 20 35 0 40 31 40 274 l0 236 -30 0 c-25 0 -30 4
-30 25 l0 25 129 0 c100 0 143 -4 193 -20z m1142 4 c3 -9 6 -51 6 -95 0 -76
-1 -79 -24 -79 -21 0 -24 5 -28 52 -7 68 -31 88 -104 88 l-53 0 -3 -256 -3
-255 33 6 c29 5 32 4 32 -20 l0 -25 -105 0 c-87 0 -105 3 -105 15 0 9 11 20
24 24 13 5 26 17 30 26 3 9 6 122 6 251 l0 235 -61 -3 c-53 -3 -65 -7 -81 -29
-11 -14 -22 -44 -25 -67 -4 -32 -10 -42 -24 -42 -17 0 -19 9 -19 95 l0 95 249
0 c218 0 250 -2 255 -16z m540 0 c3 -9 6 -51 6 -95 0 -76 -1 -79 -24 -79 -21
0 -24 5 -28 52 -7 68 -31 88 -104 88 l-53 0 -3 -256 -3 -255 33 6 c29 5 32 4
32 -20 l0 -25 -105 0 c-87 0 -105 3 -105 15 0 9 11 20 24 24 13 5 26 17 30 26
3 9 6 122 6 251 l0 235 -61 -3 c-53 -3 -65 -7 -81 -29 -11 -14 -22 -44 -25
-67 -4 -32 -10 -42 -24 -42 -17 0 -19 9 -19 95 l0 95 249 0 c218 0 250 -2 255
-16z m476 -64 c0 -73 -2 -80 -20 -80 -16 0 -20 7 -20 30 0 39 -39 80 -77 81
-68 2 -129 -4 -140 -13 -9 -7 -13 -42 -13 -109 l0 -99 70 0 70 0 0 35 c0 31 3
35 25 35 25 0 25 -1 25 -82 0 -46 -4 -89 -9 -97 -13 -21 -41 -5 -41 23 0 33
-26 46 -89 46 l-50 0 -3 -126 -3 -126 95 4 c52 3 107 10 121 17 30 15 49 49
49 86 0 18 5 25 20 25 18 0 20 -7 20 -85 l0 -85 -225 0 c-218 0 -225 1 -225
20 0 13 7 20 18 20 40 0 42 15 42 267 l0 243 -30 0 c-22 0 -30 5 -30 18 0 10
3 22 7 25 3 4 98 7 210 7 l203 0 0 -80z m384 -145 c93 -124 172 -228 177 -231
5 -3 9 85 9 200 l0 206 -30 0 c-25 0 -30 4 -30 25 0 26 0 26 82 23 69 -3 83
-6 86 -20 2 -12 -5 -19 -22 -24 -14 -3 -27 -7 -28 -8 -1 0 -5 -127 -8 -281 -5
-279 -5 -280 -27 -283 -18 -3 -52 37 -203 238 l-180 241 0 -211 0 -211 28 3
c21 2 28 -2 30 -19 3 -22 1 -23 -77 -23 -71 0 -81 2 -81 18 0 9 10 22 23 27
22 10 22 12 25 258 l2 247 -25 0 c-20 0 -25 5 -25 25 0 24 3 25 53 25 l52 0
169 -225z m764 203 c2 -12 -5 -19 -22 -24 -36 -9 -39 -27 -35 -221 4 -162 5
-170 31 -214 52 -89 175 -101 245 -25 43 46 50 82 58 284 l6 172 -31 0 c-27 0
-31 3 -28 23 3 20 9 22 86 25 77 3 82 1 82 -17 0 -14 -9 -23 -25 -27 -32 -8
-33 -15 -38 -214 -5 -217 -30 -285 -120 -332 -60 -31 -175 -30 -240 1 -91 44
-117 129 -117 389 l0 152 -24 0 c-28 0 -40 14 -32 36 5 12 24 14 103 12 83 -3
98 -6 101 -20z m732 -208 c95 -126 174 -230 176 -230 2 0 4 92 4 205 l0 205
-31 0 c-26 0 -30 3 -27 23 3 20 9 22 86 25 73 2 82 1 82 -15 0 -10 -14 -26
-30 -35 l-30 -17 0 -276 0 -275 -24 0 c-20 0 -56 43 -203 239 -98 132 -179
238 -179 238 -1 -1 1 -95 4 -209 l5 -206 26 1 c20 2 27 -3 29 -20 3 -22 1 -23
-82 -23 -79 0 -86 2 -86 20 0 11 6 20 14 20 7 0 18 6 23 13 6 7 13 118 16 255
l5 242 -29 0 c-24 0 -29 4 -29 25 0 24 3 25 54 25 l54 0 172 -230z m560 210
c0 -11 -4 -20 -10 -20 -5 0 -19 -9 -30 -20 -19 -19 -20 -33 -20 -261 l0 -241
30 7 c27 6 30 4 30 -19 l0 -26 -100 0 c-89 0 -100 2 -100 18 0 9 10 22 22 27
32 14 35 41 37 288 l1 217 -30 0 c-25 0 -30 4 -30 25 l0 25 100 0 c93 0 100
-1 100 -20z m238 -2 c2 -12 -5 -19 -22 -24 -14 -3 -28 -15 -31 -25 -6 -17 30
-114 121 -330 l28 -66 68 191 c38 105 71 198 73 208 5 12 -1 17 -22 20 -20 2
-28 9 -28 23 0 18 8 20 93 23 87 3 92 2 92 -17 0 -14 -9 -23 -25 -27 -14 -3
-34 -17 -44 -29 -10 -13 -60 -139 -111 -279 -74 -204 -96 -256 -110 -256 -14
0 -42 57 -124 249 -58 137 -109 263 -112 280 -5 24 -12 31 -30 31 -19 0 -24 5
-24 25 l0 26 102 -3 c88 -3 103 -6 106 -20z m806 -9 c3 -17 6 -53 6 -80 0 -40
-3 -49 -18 -49 -13 0 -21 13 -29 43 -16 57 -40 69 -132 68 -97 -1 -101 -6
-101 -128 l0 -93 73 0 73 0 -4 35 c-4 32 -2 35 22 35 l27 0 -3 -92 c-3 -79 -6
-93 -20 -96 -12 -2 -18 3 -18 15 0 10 -7 29 -16 41 -13 19 -24 22 -75 22 l-59
0 0 -126 0 -127 99 5 c121 6 146 19 162 83 8 33 16 45 30 45 16 0 19 -8 19
-47 0 -27 -3 -65 -6 -85 l-7 -38 -218 0 c-203 0 -219 1 -219 18 0 9 10 22 22
27 32 14 35 41 37 288 l1 217 -30 0 c-25 0 -30 4 -30 25 l0 25 204 0 204 0 6
-31z m446 5 c67 -31 83 -55 88 -127 5 -77 -20 -121 -90 -155 l-47 -23 56 -87
c67 -104 100 -142 125 -142 11 0 18 -7 18 -20 0 -18 -7 -20 -58 -20 -70 0 -68
-2 -167 148 -58 88 -75 108 -97 110 l-28 3 0 -111 0 -112 30 7 c27 6 30 4 30
-19 l0 -26 -100 0 c-93 0 -100 1 -100 20 0 13 7 20 20 20 35 0 40 31 40 274
l0 236 -30 0 c-26 0 -30 4 -30 26 l0 26 148 -4 c122 -3 155 -7 192 -24z m860
6 c0 -13 -10 -24 -25 -30 l-24 -9 -3 -251 -3 -251 28 7 c24 5 27 3 27 -20 l0
-26 -100 0 c-93 0 -100 1 -100 20 0 13 7 20 18 20 40 0 42 15 42 267 l0 243
-30 0 c-22 0 -30 5 -30 18 0 10 3 22 7 25 3 4 48 7 100 7 87 0 93 -1 93 -20z
m564 4 c3 -9 6 -51 6 -95 0 -76 -1 -79 -24 -79 -21 0 -24 5 -28 52 -7 68 -31
88 -104 88 l-53 0 -3 -256 -3 -255 33 6 c29 5 32 4 32 -20 l0 -25 -105 0 c-87
0 -105 3 -105 15 0 9 11 20 24 24 13 5 26 17 30 26 3 9 6 122 6 251 l0 235
-61 -3 c-53 -3 -65 -7 -81 -29 -11 -14 -22 -44 -25 -67 -4 -32 -10 -42 -24
-42 -17 0 -19 9 -19 95 l0 95 249 0 c218 0 250 -2 255 -16z m256 -3 c0 -12
-10 -21 -27 -26 -55 -13 -52 -31 34 -163 l58 -91 66 122 66 122 -29 3 c-24 3
-29 8 -26 25 3 21 8 22 93 22 83 0 90 -1 90 -20 0 -13 -8 -21 -22 -23 -36 -5
-76 -56 -141 -180 l-62 -119 0 -107 0 -108 30 7 c27 6 30 4 30 -19 l0 -26
-105 0 c-87 0 -105 3 -105 15 0 9 11 20 24 24 31 12 36 29 36 117 l0 74 -85
135 c-47 74 -90 146 -95 160 -7 18 -17 25 -35 25 -20 0 -25 5 -25 25 l0 25
115 0 c106 0 115 -1 115 -19z"/>
<path d="M1252 828 l-40 -113 80 -3 c44 -2 82 -1 84 1 4 3 -73 218 -81 225 -1
2 -21 -48 -43 -110z"/>
<path d="M759 1004 c-5 -15 -8 -79 -7 -143 l3 -116 54 2 c91 4 149 54 158 134
9 88 -52 149 -150 149 -42 0 -49 -3 -58 -26z"/>
<path d="M6829 1003 c-5 -14 -8 -69 -7 -122 l3 -96 48 2 c71 4 115 26 132 67
41 97 -13 176 -120 176 -40 0 -47 -3 -56 -27z"/>
</g>
</svg>
