<svg id="Layer_1" data-name="Layer 1" xmlns="http://www.w3.org/2000/svg" viewBox="0 0 379.3 94.3"><defs><style>.cls-1{fill:#fff;}</style></defs><title>Artboard 1 copy</title><path class="cls-1" d="M200.17,35.2l4.9,1.47v1.84c-4.24.2-8.43.06-12.57.09-.49-1.74-.43-1.85,1-2.33l3.29-1.08c0-.63.09-1.19.09-1.75q0-11.74,0-23.47c0-.28,0-.57,0-.85a1.07,1.07,0,0,0-.94-1.21c-.78-.19-1.53-.47-2.3-.71-1.57-.49-1.57-.49-1.25-2.36.47,0,1-.09,1.48-.09,2.61,0,5.22.06,7.82,0a2.9,2.9,0,0,1,2.8,1.42c5,7.16,10,14.27,15.06,21.4.28.41.58.81,1.08,1.49.09-.72.17-1.08.17-1.43q0-9,0-18.06c0-1.41,0-1.41-1.45-1.81-.82-.23-1.65-.44-2.46-.68-1.4-.41-1.42-.46-1.18-2,1-.36,11.33-.4,12.67,0,.3,1.62.28,1.68-1.18,2.14-1,.34-2.07.66-3.28,1V38.83c-.93,0-1.67.06-2.41.05s-.94-.58-1.26-1l-7.83-11L201.27,11.22c-.28-.41-.61-.78-1-1.26C200,11.23,199.89,33.5,200.17,35.2Z"/><path class="cls-1" d="M212.44,86l5.2,1v1.63a154.93,154.93,0,0,1-16.48.09V87l5.32-1c.31-1.13.42-25.4.13-27.93L201.12,57V55.21a9.94,9.94,0,0,1,1.21-.13c5.31,0,10.63,0,15.93,0a15.17,15.17,0,0,1,7.25,1.79,7.48,7.48,0,0,1,4.2,7.19,6.8,6.8,0,0,1-2.58,5.17A14.58,14.58,0,0,1,221.54,72l-1.54.43a4.38,4.38,0,0,0,.6.43,11.27,11.27,0,0,1,5.57,5.45c.73,1.44,1.47,2.87,2.18,4.31a7.1,7.1,0,0,0,5.78,4.28,5.87,5.87,0,0,1,.83.19,2,2,0,0,1,.28.13l.07,1.34c-.16.14-.23.25-.31.25-2.31,0-4.64.1-6.95,0a4.74,4.74,0,0,1-3.65-2.22,26.77,26.77,0,0,1-1.74-2.92c-1.07-2.11-2.08-4.26-3.13-6.38a15.28,15.28,0,0,0-1-1.71,3.82,3.82,0,0,0-3.09-1.78c-1,0-2,0-2.92,0A85.48,85.48,0,0,0,212.44,86Zm-.07-28V71c1.41,0,2.72,0,4,0,5.12-.12,7.82-3.3,7.13-8.37a5.2,5.2,0,0,0-3-4.23c-2.54-1.23-5.22-1.1-7.91-.69C212.56,57.76,212.49,57.85,212.37,57.94Z"/><path class="cls-1" d="M49.21,55.17c.53,0,1-.09,1.45-.09,2.8,0,5.6,0,8.4,0a2.24,2.24,0,0,1,2.09,1.11q7.63,10.91,15.32,21.75A3.27,3.27,0,0,0,77.63,79c0-.4.1-.81.1-1.21V59.89c0-1.41,0-1.41-1.42-1.81l-2.6-.76c-1.34-.4-1.41-.54-1-2.14H85.15c.57,1.46.46,1.73-.89,2.18l-3.49,1.13V89.12a12.1,12.1,0,0,1-2.49,0,2.23,2.23,0,0,1-1.12-1c-2.55-3.54-5.07-7.1-7.6-10.65q-5.7-8-11.41-16c-.29-.4-.62-.78-1-1.26-.33,1.29-.45,22-.18,25.18.6.2,1.25.43,1.91.63s1.19.33,1.78.5c1.52.45,1.52.46,1.21,2.19H49.32c-.45-1.59-.39-1.72,1.07-2.19.85-.28,1.71-.55,2.57-.81a1,1,0,0,0,.85-1.14c0-.33,0-.66,0-1V60.31c0-.34,0-.67,0-1a.94.94,0,0,0-.78-1c-.87-.23-1.73-.51-2.58-.78C49,57.06,49,57,49.21,55.17Z"/><path class="cls-1" d="M179.23,4.93c.3,2,.6,4.05.89,6.06.1.75.19,1.5.29,2.25.06.44-.1.81-.53.86a1.27,1.27,0,0,1-1-.26c-.92-1-1.75-2.12-2.63-3.18-.52-.61-1.05-1.22-1.62-1.79a3.61,3.61,0,0,0-2.52-1.16c-2-.06-4.07-.1-6.11-.13h-2.61V20a3.4,3.4,0,0,0,.86.23c1.09,0,2.18,0,3.27-.06a3.37,3.37,0,0,0,3.16-2.26c.38-.91.65-1.87,1-2.82.36-1.13.4-1.16,1.81-.81,0,.39.08.81.08,1.22q0,6,0,12.09c0,.55.27,1.31-.69,1.44-.69.09-.91-.13-1.26-1.21-.3-.89-.6-1.79-.95-2.67a3.41,3.41,0,0,0-3-2.24c-1.35-.11-2.72,0-4.18,0V35.63a10.78,10.78,0,0,0,1.1.11c2.85,0,5.69,0,8.54,0a5.13,5.13,0,0,0,4.86-2.58c.94-1.53,2.09-2.94,3.09-4.43a1.18,1.18,0,0,1,1.9-.39c-.46,3.31-.93,6.66-1.39,10-1.31.37-27.71.42-29.33.07v-1.7l5.51-1V7.75c-.82-.18-1.63-.36-2.45-.52-.61-.12-1.22-.21-1.82-.32C152,6.65,152,6.61,152.23,5,153.23,4.69,177.14,4.59,179.23,4.93Z"/><path class="cls-1" d="M173,73.16V85.88a6.62,6.62,0,0,0,1.1.18c2.85,0,5.7,0,8.54,0a5.19,5.19,0,0,0,4.87-2.59c1-1.58,2.13-3,3.17-4.55.47-.68,1-.85,1.77-.24-.12,1-.24,2-.38,3-.29,2.07-.61,4.13-.86,6.19-.09.71-.39,1-1.09,1-.29,0-.57,0-.86,0H161.85V87l5.52-1.07V58L161.82,57v-1.8h26.82a2.43,2.43,0,0,1,.27.62c.37,2.48.73,5,1.09,7.45,0,.14.09.31,0,.42s-.29.61-.52.72a1,1,0,0,1-.88-.1,14.33,14.33,0,0,1-1.29-1.5c-.57-.7-1.18-1.37-1.69-2.11a6.38,6.38,0,0,0-6-2.84c-1.71.08-3.42,0-5.13,0-.46,0-.92,0-1.47.08V70.45a18,18,0,0,0,4.87-.09,3.13,3.13,0,0,0,2.29-2c.35-.83.6-1.69.89-2.54.12-.36.13-.82.36-1.07a1.66,1.66,0,0,1,1.07-.41c.21,0,.5.38.59.64a3,3,0,0,1,.06,1V77.67a2.38,2.38,0,0,1,0,.85,1.42,1.42,0,0,1-.64.77.82.82,0,0,1-1.13-.56c-.25-.81-.49-1.64-.78-2.43-.89-2.41-1.9-3.11-4.47-3.14Z"/><path class="cls-1" d="M15.76,24.26c0,.55-.1,1-.1,1.38,0,2.89,0,5.78,0,8.67,0,1.37.24,1.41,1.3,1.55,1.36.19,2.7.48,4.05.73a4.24,4.24,0,0,1,.48.2v1.79c-5.65.05-11.22,0-16.73,0-.54-1.67-.41-1.92,1-2.19s2.7-.47,4.21-.73c.05-.51.16-1,.16-1.5q0-12.51,0-25c0-1.46,0-1.46-1.46-1.71L5.77,6.91c-1.4-.26-1.48-.38-1.13-2a10.7,10.7,0,0,1,1.18-.12c5,0,10,0,14.93,0A15.84,15.84,0,0,1,27,6c7.16,3.08,6.9,11,3,15.08a11.08,11.08,0,0,1-7.61,3.39c-1.74.09-3.49-.11-5.24-.18Zm0-2.63a12.12,12.12,0,0,0,6.52,0,5.39,5.39,0,0,0,3.95-4.24,16.79,16.79,0,0,0,.23-4.64,5.44,5.44,0,0,0-2.73-4.42c-2.53-1.43-5.2-1.35-8-.75Z"/><path class="cls-1" d="M14.23,58c0,.58-.06,1-.06,1.42,0,5.92,0,11.85,0,17.77A15.53,15.53,0,0,0,14.73,81a6.88,6.88,0,0,0,5.19,5.13,12.53,12.53,0,0,0,4.79.46A8.2,8.2,0,0,0,32.24,79a27.44,27.44,0,0,0,.21-3.26q0-7.89,0-15.79c0-1.43,0-1.43-1.37-1.87-.72-.23-1.45-.45-2.17-.69-1.32-.45-1.37-.55-1-2.18h12c.37,1.69.34,1.76-1.11,2.23l-3.31,1.08v1.77c0,5.36.06,10.71,0,16.07a18.13,18.13,0,0,1-.7,5c-1.56,5-5.25,7.62-10.33,8.28a19.77,19.77,0,0,1-7.61-.49c-5-1.36-8-5-8.17-10.16s-.05-10.62-.06-15.92c0-1.33,0-2.66,0-4,0-1-.05-1.06-1.1-1.28l-2.79-.54c-1.43-.28-1.56-.52-1-2.11H19.75V57Z"/><path class="cls-1" d="M42,35.38l2.71.94c1.33.46,1.38.57,1,2.18h-11c-.5-1.59-.42-1.75,1-2.25,1-.35,2.2-.47,2.86-1.14a8.9,8.9,0,0,0,1.4-3q5-12.93,9.88-25.88c.14-.35.29-.7.42-1.06a.91.91,0,0,1,1-.66h3c.31.76.59,1.41.84,2.07q5.2,13.68,10.38,27.36c.4,1.08.91,1.81,2.12,2a8.79,8.79,0,0,1,1.36.41c1.51.47,1.51.47,1.25,2.09-1.11.33-13,.41-14.83.07V36.74l4.94-1.09c-.33-.91-.59-1.66-.86-2.4-.65-1.83-1.33-3.66-1.95-5.49a1.15,1.15,0,0,0-1.22-.93c-3.42,0-6.83,0-10.24,0a1.08,1.08,0,0,0-1.22.73C43.85,30.11,42.94,32.65,42,35.38Zm9.21-24.85h-.35Q48.43,17.21,46,23.92a49.05,49.05,0,0,0,10,0Q53.59,17.21,51.17,10.53Z"/><path class="cls-1" d="M142.21,4.75c.66,3.46,1.28,6.74,1.9,10-1.26.57-1.28.58-1.9-.27-.92-1.26-1.79-2.56-2.73-3.82a17.91,17.91,0,0,0-1.66-1.94,3.87,3.87,0,0,0-2.65-1.22c-1.41-.06-2.83,0-4.4,0a12.26,12.26,0,0,0-.13,1.26q0,12.8,0,25.59c0,1.27,0,1.29,1.29,1.52l4.75.84.07,1.61c-1.24.41-16,.46-17.6.09V36.69l5.72-1c.33-1.26.36-26.66,0-28.15a25.44,25.44,0,0,0-5.16.06A4.25,4.25,0,0,0,117,9.3c-1.19,1.53-2.32,3.11-3.47,4.67l-.58.81a.76.76,0,0,1-1.11.25,1.12,1.12,0,0,1-.39-.92c.49-2.84,1.06-5.67,1.57-8.51a.91.91,0,0,1,1.08-.85h28.07Z"/><path class="cls-1" d="M246.4,88.23c-.85,1-1.54,2.18-3.17,1.31-.06-.82-.14-1.71-.2-2.6-.15-2.55-.3-5.11-.43-7.66,0-.55-.15-1.18.68-1.34s1.06,0,1.52.88c1,1.79,1.85,3.63,2.94,5.34a7,7,0,0,0,4.52,3.21,8.48,8.48,0,0,0,4.5-.12,5.29,5.29,0,0,0,3.81-4.66,5.85,5.85,0,0,0-3-6.37c-1.65-.92-3.41-1.65-5.12-2.46-1.33-.62-2.71-1.15-4-1.87-4-2.25-5.21-5.46-4.62-9.53a9.34,9.34,0,0,1,7.49-7.8,11.83,11.83,0,0,1,7.64.79c.25.12.51.22.77.33a11.58,11.58,0,0,1,1.72-1.47c.34-.2.91,0,1.33,0a49.59,49.59,0,0,1,.94,10.19c-1.49.46-1.52.4-2.23-.81a47.25,47.25,0,0,0-3.11-4.91,5.92,5.92,0,0,0-5.12-2.28,4.7,4.7,0,0,0-4.78,4.19A5.62,5.62,0,0,0,251,66.48a23.44,23.44,0,0,0,2.76,1.46c1.33.61,2.71,1.13,4,1.75a28.89,28.89,0,0,1,3,1.58,9.45,9.45,0,0,1,2.6,13.94,11.28,11.28,0,0,1-8.7,4.45,18.28,18.28,0,0,1-7-1Z"/><path class="cls-1" d="M101.49,4.94c.5,2.59,1,5.14,1.49,7.69a8.28,8.28,0,0,1,.16.84c.06.57.5,1.25-.34,1.61s-1.16-.36-1.53-.89c-.69-1-1.36-1.94-2-2.9q-.68-.91-1.38-1.8a5.07,5.07,0,0,0-4.45-2.07c-1.08.06-2.17,0-3.22,0-.33,1.11-.45,25.63-.15,28.19l5.87,1.05v1.67c-1.16.33-15.71.39-17.44.06V36.67l5.64-1c.34-1,.47-25.51.15-28.11a10.76,10.76,0,0,0-1.18-.11c-.85,0-1.71,0-2.56,0a4.89,4.89,0,0,0-4.33,2C75,11,73.88,12.57,72.72,14.12c-.38.51-.65,1.31-1.51,1s-.43-1.12-.32-1.72c.5-2.79,1-5.58,1.53-8.31C73.53,4.69,99.55,4.59,101.49,4.94Z"/><path class="cls-1" d="M334.27,65c-.8.66-1.32.58-1.8-.13-.66-1-1.34-2-2.05-2.9s-1.36-1.82-2.11-2.68a4.33,4.33,0,0,0-3.39-1.54h-4a13.42,13.42,0,0,0-.16,1.42q0,12.58,0,25.17c0,1.18,0,1.69,1.52,1.84s3,.5,4.55.78v1.59c-.95.36-15.35.48-17.52.13V87c1.11-.19,2.22-.36,3.33-.58,2.87-.57,2.65.12,2.65-3q0-11.81,0-23.61c0-.6-.06-1.21-.1-2a18.88,18.88,0,0,0-5.83.23,5.48,5.48,0,0,0-2.8,2.31c-1.11,1.48-2.15,3-3.24,4.5-.56.77-.58.75-1.76.21.15-.88.3-1.81.47-2.72.37-2,.74-4,1.12-6,.25-1.25.26-1.27,1.57-1.27h27.56C333.13,58.41,333.67,61.71,334.27,65Z"/><path class="cls-1" d="M349.92,88.75c-.38-1.58-.26-1.79,1.1-2s2.61-.43,3.93-.62a.9.9,0,0,0,.89-1c0-3.22,0-6.44,0-9.67a2.55,2.55,0,0,0-.48-1.29c-3.15-5-6.33-10-9.48-15A2.23,2.23,0,0,0,344.31,58c-.84-.17-1.65-.42-2.48-.64-1.41-.38-1.4-.38-1.22-2,1-.33,13.67-.4,15.34-.07,0,.24.09.51.11.78s0,.47-.06.9l-4.56,1,8.45,13.86c2.79-4.61,5.43-9,8.19-13.51l-3.18-1c-1.41-.43-1.41-.43-1.22-2,1-.36,10.69-.42,12.1-.07.3,1.61.32,1.81-1.17,2.13a7.43,7.43,0,0,0-4.93,3.85c-2.39,3.87-5,7.62-7.52,11.39a4.35,4.35,0,0,0-.82,2.64c.05,3,0,6,0,9v1.65l6,1.09v1.62C366.26,88.93,352,89,349.92,88.75Z"/><path class="cls-1" d="M147.68,58.47l-2.89-1.07c-1.32-.49-1.37-.58-1-2.1a72.56,72.56,0,0,1,11.42,0c.32,1.59.28,1.64-1.16,2.15-1,.36-2.27.5-3,1.19s-.95,1.91-1.36,2.92L139.38,87.42l-.16.39a2,2,0,0,1-2.76,1.29,2,2,0,0,1-.81-1.06c-1.18-2.9-2.32-5.8-3.47-8.71-2.63-6.59-5.29-13.18-7.88-19.79a2.31,2.31,0,0,0-1.87-1.66,20.74,20.74,0,0,1-2.06-.53c-1.49-.42-1.51-.47-1.15-2.17h15.62v1.76c-.81.19-1.63.39-2.44.56s-1.65.31-2.67.51c3,7.94,5.9,15.72,8.83,23.5C141.78,73.92,144.71,66.28,147.68,58.47Z"/><path class="cls-1" d="M281.2,58,275.45,57v-1.8h16.93c.58,1.52.41,1.81-1.13,2.07-1.3.22-2.61.45-3.91.69a1.85,1.85,0,0,0-.43.25V85.94l5.66,1v1.8h-17.1V87l5.73-1.06Z"/><path class="cls-1" d="M94.6,56.91v-1.8c5.7-.06,11.36,0,17.11,0v1.86L109,57.5c-.69.13-1.4.26-2.1.32a1,1,0,0,0-1,1.23c0,.28,0,.57,0,.85V84.08c0,.28,0,.56,0,.85,0,.74.25,1.1,1,1.21,1.58.22,3.16.55,4.79.84v1.84c-5.67.11-11.32.05-17.09,0V87l4.47-.82c1.27-.23,1.31-.24,1.31-1.54q0-12.66,0-25.31c0-1.27,0-1.29-1.34-1.52l-3.22-.55C95.44,57.16,95.05,57,94.6,56.91Z"/></svg>